<?xml version="1.0" encoding="UTF-8"?><svg xmlns="http://www.w3.org/2000/svg" width="286.37" height="292.65" viewBox="0 0 286.37 292.65"><defs><style>.cls-1{fill:#fff;}</style></defs><path class="cls-1" d="M135.3,2.74c.08,63.05-7.38,50.54-67.14,52.56-1.34,16.17,51.5,2.79,64.97,6.63,.21,28.93-103.58-15.17-128.02,49.25-24.88,56.96,46.49,109.31,96.81,76.35,18.92-3.59,34.92-64.13,31.59-18.07,1.29,40.33-7.99-7.44-18.85,15.53,0,3.56,6.25,9.29,11.21,10.44,16.79-2.7-3.43,57.55,18.73,55.87-.12,7.72,1.77,35.58-1.91,36.4-2.8,3.95-2.29,4.96,2.68,4.96,7.39,0,7.52-1.15,7.52-50.4,0-39.71,.25-44.92,2.04-45.56,3.31-.99,76.07-.45,79.36-2.16,110.26-30.27,16.2-179.61-62.94-102.83-8.91,8.39-11.2,8.78-15.92,2.79-3.92-5.88-3.79-20.14,2.42-8.53,4.3,8.79,11.53,1.82,14.78-3.56-34.64-22.15-19.31-20.83,10.83-20.24,3.61,3.03,8.92,14.05,14.65,6.49,8.13-18.58-30.2-13.09-43.95-14-1.84-4.63-4.92-14.05-8.41-4.33-8.99,25.52-1.28-67.18-10.45-47.6Zm10.32,62.23c1.02,3.69-.25,6.49-2.8,5.98-5.95-1.49-.42-14.11,2.8-5.98Zm-13.38,15.91c6.87,50.01-24.92-7.99-39.23,3.95-10.12,5.39-1.49,14.5,7.77,10.56,5.44-2.65,8.24,.63,10.06,3.82-7.36,1.57-32.18,4.39-22.8,14.51,9.53,11.06,11.21-12.56,21.91-7.89,24.29,7.52,17.81,50.41-.89,66.55C-11.43,245.9-47.55,44.2,132.24,80.88Zm113.63,3.82c54.64,24.28,33.42,106.55-27.64,103.72-39.16-1.58-76.35,17.64-64.33-38.31,5.83,12.18,22.03,37.06,34.01,35.63,11.44-.25,12.24-14.05,.89-13.36-9.94,2.42-9.81,2.42-15.16-3.94-12.74-14.76-15.92-31.31-9.94-51.8-3.39-16.71,38.43-9.7,54.27-11.07,2.58-14.01-33.26-3.73-37.96-5.48-18.54-10.48,52.29-30.9,65.86-15.4Zm-100.64,4.2c-1.32,23.42-6.81,.53-4.71-6.87,3.64-4.06,4.94-2.05,4.71,6.87Zm-11.72,23.29c1.23,17.65-11.36-7.35-3.44-6.36,2.68,.38,3.06,1.15,3.44,6.36Zm11.72,35.38c1.39,44.84-5.02,68.53-4.59,.64-1.05-44.18,4.56-69.73,4.59-.64Zm13.5-40.6c.89,1.53-3.18,11.33-4.84,11.33-1.76-1.75-2.06-17.99,4.84-11.33Zm-13.76,112.88c-.75,57.15-6.79-13.53-3.69-22.4,4.52-.69,2.72,5.26,3.69,22.4Z"/></svg>