<svg xmlns="http://www.w3.org/2000/svg" fill="none" viewBox="0 0 800 110" data-divider="true" role="separator"><path d="M0 30H800" opacity="0.12" stroke="url(#paint0_linear_52_11950)" stroke-dasharray="2 2"></path><path d="M0 78H800" opacity="0.12" stroke="url(#paint1_linear_52_11950)" stroke-dasharray="2 2"></path><path d="M76 106L76 4" opacity="0.12" stroke="url(#paint2_linear_52_11950)" stroke-dasharray="2 2"></path><path d="M88 30C88 27.6266 87.2962 25.3065 85.9776 23.3332C84.6591 21.3598 82.7849 19.8217 80.5922 18.9134C78.3995 18.0052 75.9867 17.7676 73.6589 18.2306C71.3311 18.6936 69.1929 19.8365 67.5147 21.5147C65.8365 23.1929 64.6936 25.3311 64.2306 27.6589C63.7676 29.9867 64.0052 32.3995 64.9134 34.5922C65.8217 36.7849 67.3598 38.6591 69.3332 39.9776C71.3065 41.2962 73.6266 42 76 42" opacity="0.12" stroke="url(#paint3_angular_52_11950)" stroke-dasharray="2 2"></path><path d="M400 106L400 4" opacity="0.12" stroke="url(#paint4_linear_52_11950)" stroke-dasharray="2 2"></path><path d="M724 110L724 -3.27826e-07" opacity="0.12" stroke="url(#paint5_linear_52_11950)" stroke-dasharray="2 2"></path><path d="M712 78C712 80.3734 712.704 82.6935 714.022 84.6668C715.341 86.6402 717.215 88.1783 719.408 89.0866C721.601 89.9948 724.013 90.2324 726.341 89.7694C728.669 89.3064 730.807 88.1635 732.485 86.4853C734.164 84.8071 735.306 82.6689 735.769 80.3411C736.232 78.0133 735.995 75.6005 735.087 73.4078C734.178 71.2151 732.64 69.3409 730.667 68.0224C728.693 66.7038 726.373 66 724 66" opacity="0.12" stroke="url(#paint6_angular_52_11950)" stroke-dasharray="2 2"></path><defs><linearGradient gradientUnits="userSpaceOnUse" id="paint0_linear_52_11950" x1="0" x2="800" y1="30" y2="30"><stop stop-opacity="0"></stop><stop offset="0.0328358"></stop><stop offset="0.692529"></stop><stop offset="1" stop-opacity="0"></stop></linearGradient><linearGradient gradientUnits="userSpaceOnUse" id="paint1_linear_52_11950" x1="0" x2="800" y1="78" y2="78"><stop stop-opacity="0"></stop><stop offset="0.115"></stop><stop offset="0.893678"></stop><stop offset="1" stop-opacity="0"></stop></linearGradient><linearGradient gradientUnits="userSpaceOnUse" id="paint2_linear_52_11950" x1="76" x2="76" y1="106" y2="3.99999"><stop stop-opacity="0"></stop><stop offset="0.333333"></stop><stop offset="0.666667"></stop><stop offset="1" stop-opacity="0"></stop></linearGradient><radialGradient cx="0" cy="0" gradientTransform="translate(76 30) rotate(90) scale(12)" gradientUnits="userSpaceOnUse" id="paint3_angular_52_11950" r="1"><stop></stop><stop offset="0.5" stop-opacity="0.34"></stop><stop offset="1"></stop></radialGradient><linearGradient gradientUnits="userSpaceOnUse" id="paint4_linear_52_11950" x1="400" x2="400" y1="106" y2="3.99999"><stop stop-opacity="0"></stop><stop offset="0.333333"></stop><stop offset="0.666667"></stop><stop offset="1" stop-opacity="0"></stop></linearGradient><linearGradient gradientUnits="userSpaceOnUse" id="paint5_linear_52_11950" x1="724" x2="724" y1="110" y2="-6.55651e-06"><stop stop-opacity="0"></stop><stop offset="0.333333"></stop><stop offset="0.666667"></stop><stop offset="1" stop-opacity="0"></stop></linearGradient><radialGradient cx="0" cy="0" gradientTransform="translate(724 78) rotate(-90) scale(12)" gradientUnits="userSpaceOnUse" id="paint6_angular_52_11950" r="1"><stop></stop><stop offset="0.5" stop-opacity="0.34"></stop><stop offset="1"></stop></radialGradient></defs></svg>