<svg xmlns="http://www.w3.org/2000/svg" class="animated-streaming_grid__BE_uF" viewBox="0 0 392 258"><g opacity="0.08" stroke="black" stroke-dasharray="1 1"><line x2="392" y1="15.5" y2="15.5"></line><line x2="392" y1="31.5" y2="31.5"></line><line x2="392" y1="47.5" y2="47.5"></line><line x2="392" y1="63.5" y2="63.5"></line><line x2="392" y1="79.5" y2="79.5"></line><line x2="392" y1="95.5" y2="95.5"></line><line x2="392" y1="111.5" y2="111.5"></line><line x2="392" y1="127.5" y2="127.5"></line><line x2="392" y1="143.5" y2="143.5"></line><line x2="392" y1="159.5" y2="159.5"></line><line x2="392" y1="175.5" y2="175.5"></line><line x2="392" y1="191.5" y2="191.5"></line><line x2="392" y1="207.5" y2="207.5"></line><line x2="392" y1="223.5" y2="223.5"></line><line x2="392" y1="239.5" y2="239.5"></line><line x2="392" y1="255.5" y2="255.5"></line><line x1="11.9999" x2="11.9999" y1="2.18557e-08" y2="256"></line><line x1="27.9999" x2="27.9999" y1="2.18557e-08" y2="256"></line><line x1="43.9999" x2="43.9999" y1="2.18557e-08" y2="256"></line><line x1="59.9999" x2="59.9999" y1="2.18557e-08" y2="256"></line><line x1="75.9999" x2="75.9999" y1="2.18557e-08" y2="256"></line><line x1="91.9999" x2="91.9999" y1="2.18557e-08" y2="256"></line><line x1="108" x2="108" y1="2.18557e-08" y2="256"></line><line x1="124" x2="124" y1="2.18557e-08" y2="256"></line><line x1="140" x2="140" y1="2.18557e-08" y2="256"></line><line x1="156" x2="156" y1="2.18557e-08" y2="256"></line><line x1="172" x2="172" y1="2.18557e-08" y2="256"></line><line x1="188" x2="188" y1="2.18557e-08" y2="256"></line><line x1="204" x2="204" y1="2.18557e-08" y2="256"></line><line x1="220" x2="220" y1="2.18557e-08" y2="256"></line><line x1="236" x2="236" y1="2.18557e-08" y2="256"></line><line x1="252" x2="252" y1="2.18557e-08" y2="256"></line><line x1="268" x2="268" y1="2.18557e-08" y2="256"></line><line x1="284" x2="284" y1="2.18557e-08" y2="256"></line><line x1="300" x2="300" y1="2.18557e-08" y2="256"></line><line x1="316" x2="316" y1="2.18557e-08" y2="256"></line><line x1="332" x2="332" y1="2.18557e-08" y2="256"></line><line x1="348" x2="348" y1="2.18557e-08" y2="256"></line><line x1="364" x2="364" y1="2.18557e-08" y2="256"></line><line x1="380" x2="380" y1="2.18557e-08" y2="256"></line></g></svg>