<svg width="28px" height="28px" viewBox="0 0 200 200" fill="#fff" xmlns="http://www.w3.org/2000/svg" class="tsv-icon"><path fill-rule="evenodd" clip-rule="evenodd" d="M32 100.641C32 68.391 54.1651 41.3515 84 34.1102V1.28125C36.3772 8.98855 0 50.5392 0 100.641C0 150.742 36.3772 192.293 84 200V167.171C54.1651 159.93 32 132.89 32 100.641ZM200 100.641C200 150.742 163.623 192.293 116 200V167.171C145.835 159.93 168 132.89 168 100.641C168 68.391 145.835 41.3515 116 34.1102V1.28125C163.623 8.98855 200 50.5392 200 100.641Z" fill="url(#logo_svg__paint0_linear_231_555)"/><defs><linearGradient id="logo_svg__paint0_linear_231_555" x1="157.5" y1="33.0763" x2="44.7421" y2="148.561" gradientUnits="userSpaceOnUse"><stop offset="0.0509862" stop-color="#e7ecf4"/><stop offset="1" stop-color="#9999a1"/></linearGradient></defs></svg>