<svg id="Layer_1" data-name="Layer 1" xmlns="http://www.w3.org/2000/svg" viewBox="0 0 482.52 458.62"><defs><style>.cls-1{fill:#269de2;}</style></defs><title>104</title><path class="cls-1" d="M217.14,265.11a47,47,0,0,1-66.42,0L57.07,171.45a6.2,6.2,0,0,1,0-8.77l0,0L150.72,69a47,47,0,0,1,66.42,0l41.46,41.46h78.12L256.2,29.93a102.21,102.21,0,0,0-144.54,0L18,123.59a61.44,61.44,0,0,0,0,86.89l0,0,93.65,93.65a102.2,102.2,0,0,0,144.52,0l0,0,80.52-80.52H258.6Z" transform="translate(0 0)"/><path class="cls-1" d="M482.52,291.57a61.09,61.09,0,0,0-18-43.46l-93.66-93.65a102.2,102.2,0,0,0-144.52,0l0,0L145.8,235h78.12l41.46-41.46a47,47,0,0,1,66.42,0l93.65,93.65a6.2,6.2,0,0,1,0,8.77l0,0L331.8,389.63a47,47,0,0,1-66.42,0l-41.46-41.46H145.8l80.52,80.52a102.21,102.21,0,0,0,144.54,0L464.51,335h0A61.06,61.06,0,0,0,482.52,291.57Z" transform="translate(0 0)"/></svg>