<svg height="3.5rem" width="3.5rem" xmlns="http://www.w3.org/2000/svg" viewBox="0 0 108.43 191.98">
  <path d="M95.32,164.48v5.37a.62.62,0,0,1-1,.44L54,130a.63.63,0,0,1-.13-.67.62.62,0,0,1,.57-.38h5.37a.65.65,0,0,1,.44.18L95.14,164A.65.65,0,0,1,95.32,164.48Zm-1.23,3.89v-3.64L59.52,130.16H55.88Z" transform="translate(-29.98 -2.53)"/>
  <path d="M72.71,54.76v5.38a.62.62,0,0,1-.18.43L60.21,72.89a.65.65,0,0,1-.44.18H54.4A.61.61,0,0,1,54,72L71.66,54.33a.61.61,0,0,1,1,.43Zm-1.23,5.12V56.25L55.88,71.84h3.64Z" transform="translate(-29.98 -2.53)"/>
  <path d="M119.4,149.13v44.76a.61.61,0,0,1-.38.57.6.6,0,0,1-.67-.13l-1.45-1.45a.58.58,0,0,1-.15-.11l-7.57-7.57-10-10a.6.6,0,0,1-.18-.44V162.69L61.56,125.24H49.48a.62.62,0,0,1-.44-.18l-7.16-7.16,0,0L31.94,108a.72.72,0,0,1-.11-.15l-1.67-1.67a.62.62,0,0,1-.18-.43V96.29a.58.58,0,0,1,.18-.43L41.82,84.13A.49.49,0,0,1,42,84l7.09-7.08a.58.58,0,0,1,.43-.18H61.56L76.4,61.92V49.84a.58.58,0,0,1,.18-.43L101.8,24.18a.62.62,0,0,1,1,.44v107.7l16.37,16.37A.65.65,0,0,1,119.4,149.13Zm-1.23,43.28v-43L101.8,133a.58.58,0,0,1-.18-.43V26.1l-24,24V62.17a.65.65,0,0,1-.18.44l-15.2,15.2a.65.65,0,0,1-.44.18H49.73l-7,7a.49.49,0,0,1-.14.11L31.21,96.55v8.9l1.6,1.6a.58.58,0,0,1,.11.15L42.71,117l0,0,7,7H61.81a.65.65,0,0,1,.44.18L100.06,162a.65.65,0,0,1,.18.44v12.08l13,13,4.25,4.25a.72.72,0,0,1,.15.11Z" transform="translate(-29.98 -2.53)"/>
  <path d="M138.41,17.24V129.52a.62.62,0,0,1-.18.43L124.14,144a.62.62,0,0,1-.87,0L109.18,130a.58.58,0,0,1-.18-.43V17.24a.62.62,0,0,1,.18-.44L123.27,2.71a.62.62,0,0,1,.87,0L138.23,16.8A.65.65,0,0,1,138.41,17.24Zm-1.23,112V17.49L123.7,4,110.23,17.49V129.27l13.47,13.47Z" transform="translate(-29.98 -2.53)"/>
</svg>